<?xml version="1.0" encoding="utf-8"?>
<!-- Generator: Adobe Illustrator 27.2.0, SVG Export Plug-In . SVG Version: 6.00 Build 0)  -->
<svg version="1.1" id="レイヤー_1" xmlns="http://www.w3.org/2000/svg" xmlns:xlink="http://www.w3.org/1999/xlink" x="0px"
	 y="0px" viewBox="0 0 35 35" style="enable-background:new 0 0 35 35;" xml:space="preserve">
<style type="text/css">
	.st0{fill:#666666;}
	.st1{fill:#FFFFFF;}
</style>
<g>
	<path class="st0" d="M33.8,13.9L30,10.1L24.9,5l-3.8-3.8c-0.3-0.3-0.8-0.3-1.2,0L1.2,19.9c0,0,0,0-0.1,0.1c0,0,0,0,0,0.1
		c0,0-0.1,0.1-0.1,0.2c0,0,0,0,0,0.1c0,0,0,0.1,0,0.2c0,0,0,0.1,0,0.1v12.8c0,0.2,0.1,0.4,0.2,0.6c0.2,0.2,0.4,0.2,0.6,0.2h0
		L14.5,34h0c0,0,0,0,0.1,0c0,0,0,0,0.1,0c0.1,0,0.1,0,0.2-0.1c0,0,0,0,0.1,0c0,0,0.1-0.1,0.1-0.1c0,0,0,0,0.1-0.1c0,0,0,0,0,0
		l18.7-18.7c0.2-0.2,0.2-0.4,0.2-0.6C34,14.3,33.9,14.1,33.8,13.9z M28.2,10.7L10.7,28.2l-3.9-3.9L24.3,6.7L28.2,10.7z M20.5,2.9
		l2.7,2.7L5.6,23.1L3,20.4L20.5,2.9z M7.4,32.4l-4.8-4.8v-5.2l9.9,9.9L7.4,32.4z M14.5,32l-2.7-2.7l17.5-17.5l2.7,2.7L14.5,32z"/>
	<rect x="9.6" y="20" transform="matrix(0.7071 -0.7071 0.7071 0.7071 -9.0681 21.9473)" class="st1" width="24.8" height="3.8"/>
	<rect x="5.1" y="14.7" transform="matrix(0.7071 -0.7071 0.7071 0.7071 -7.2219 17.4898)" class="st1" width="24.8" height="5.6"/>
	<rect x="0.7" y="11.1" transform="matrix(0.7071 -0.7071 0.7071 0.7071 -5.3753 13.0302)" class="st1" width="24.8" height="3.8"/>
	<polygon class="st1" points="12.6,32.4 7.4,32.4 2.6,27.6 2.6,22.4 	"/>
</g>
</svg>
