<?xml version="1.0" encoding="UTF-8"?><svg id="_レイヤー_1" xmlns="http://www.w3.org/2000/svg" viewBox="0 0 27.28 18.96"><defs><style>.cls-1{fill:#666;}</style></defs><path class="cls-1" d="m24.74,18.96H2.54c-1.4,0-2.54-1.14-2.54-2.54V2.54C0,1.14,1.14,0,2.54,0h22.2c1.4,0,2.54,1.14,2.54,2.54v13.88c0,1.4-1.14,2.54-2.54,2.54ZM2.54,1.65c-.49,0-.88.4-.88.88v13.88c0,.49.4.88.88.88h22.2c.49,0,.88-.4.88-.88V2.54c0-.49-.4-.88-.88-.88H2.54Z"/><path class="cls-1" d="m13.64,12.17c-.6,0-1.21-.17-1.73-.52L1.01,4.4c-.19-.13-.24-.38-.12-.57.13-.19.38-.24.57-.12l10.9,7.24c.77.51,1.77.51,2.55,0l10.9-7.24c.19-.13.45-.07.57.12.13.19.07.45-.12.57l-10.9,7.24c-.53.35-1.13.52-1.73.52Z"/></svg>