<?xml version="1.0" encoding="UTF-8"?><svg id="_レイヤー_1" xmlns="http://www.w3.org/2000/svg" viewBox="0 0 21.88 21.88"><defs><style>.cls-1{fill:#5ba2cb;}</style></defs><g id="icon"><path class="cls-1" d="m21.88,1.38l-.02-.15s0-.04-.02-.07c0-.03-.01-.05-.02-.07,0-.03-.02-.06-.03-.07,0-.03-.02-.05-.03-.07,0-.02-.02-.04-.03-.06-.01-.02-.02-.05-.04-.08l-.04-.06s-.03-.05-.04-.06c-.01-.02-.02-.03-.05-.07l-.04-.05s-.03-.04-.05-.06l-.06-.1-.07-.04s-.02-.02-.04-.03l-.05-.04s-.04-.03-.06-.05l-.06-.04s-.04-.03-.07-.04l-.06-.03s-.04-.02-.08-.04h-.04s-.06-.04-.09-.05l-.06-.02s-.06-.02-.07-.02h-.06s-.07-.02-.09-.02c-.03,0-.05,0-.07,0-.03,0-.06,0-.09,0h-6.48c-.85,0-1.53.69-1.53,1.53s.69,1.53,1.53,1.53h2.78l-2.02,2.01c-3.66-2.62-8.69-2.23-11.92.99C.96,7.82,0,10.15,0,12.62s.96,4.8,2.71,6.55c1.75,1.75,4.07,2.71,6.55,2.71s4.8-.96,6.55-2.71c1.75-1.75,2.71-4.07,2.71-6.55,0-1.96-.59-3.81-1.72-5.37l2.01-2.01v2.78c0,.85.69,1.53,1.53,1.53s1.53-.69,1.53-1.53V1.53s0-.1,0-.15Zm-.64.06h0Zm-11.98,4.91c1.6,0,3.21.61,4.43,1.83,1.18,1.18,1.84,2.76,1.84,4.43s-.65,3.25-1.84,4.43c-1.18,1.18-2.76,1.84-4.43,1.84s-3.25-.65-4.43-1.84c-1.18-1.18-1.84-2.76-1.84-4.43s.65-3.25,1.84-4.43c1.22-1.22,2.83-1.83,4.43-1.83ZM21.07,1h0s0,0,0,0Zm-.18-.18h0s0,0,0,0Zm-.08-.05h0s0,0,0,0Z"/></g></svg>