<svg width="84" height="68" viewBox="0 0 84 68" fill="none" xmlns="http://www.w3.org/2000/svg">
<path d="M79.5 0.666748C77 0.666748 64.5 6.91675 42 6.91675C19.9167 6.91675 6.58337 0.666748 4.50004 0.666748C2.41671 0.666748 0.333374 2.33341 0.333374 4.83341V63.1667C0.333374 65.6667 2.41671 67.3334 4.50004 67.3334C7.00004 67.3334 19.0834 61.0834 42 61.0834C64.5 61.0834 77 67.3334 79.5 67.3334C81.5834 67.3334 83.6667 65.6667 83.6667 63.1667V4.83341C83.6667 2.33341 81.5834 0.666748 79.5 0.666748ZM75.3334 57.3334C67 54.8334 56.1667 52.7501 42 52.7501C27.8334 52.7501 17 54.8334 8.66671 57.3334V10.6667C19.5 13.5834 30.75 15.2501 42 15.2501C56.1667 15.2501 67 13.1667 75.3334 10.6667V57.3334ZM30.3334 29.8334L14.9167 48.1667C23.25 46.9167 32.4167 46.5001 42 46.5001C51.5834 46.5001 60.75 46.9167 69.0834 48.1667L50.3334 25.6667L38.6667 39.8334L30.3334 29.8334Z" fill="#4F5467"/>
</svg>
