<?xml version="1.0" encoding="utf-8"?>
<!-- Generator: Adobe Illustrator 27.2.0, SVG Export Plug-In . SVG Version: 6.00 Build 0)  -->
<svg version="1.1" id="レイヤー_1" xmlns="http://www.w3.org/2000/svg" xmlns:xlink="http://www.w3.org/1999/xlink" x="0px"
	 y="0px" viewBox="0 0 30 30" style="enable-background:new 0 0 30 30;" xml:space="preserve">
<style type="text/css">
	.st0{fill:#666666;}
</style>
<path class="st0" d="M21.8,29.5H9.1c-1.3,0-2.3-1-2.3-2.3V2.8c0-1.3,1-2.3,2.3-2.3h12.7c1.3,0,2.3,1,2.3,2.3v24.4
	C24.1,28.4,23.1,29.5,21.8,29.5z M22.8,4.3H8v21.4h14.8V4.3z M16.9,27.9L16.9,27.9c0-0.3-0.2-0.5-0.5-0.5h-2c-0.3,0-0.5,0.2-0.5,0.5
	v0c0,0.3,0.2,0.5,0.5,0.5h2C16.7,28.3,16.9,28.1,16.9,27.9z M17.7,2.5L17.7,2.5c0-0.1-0.1-0.2-0.2-0.2h-4.1c-0.1,0-0.2,0.1-0.2,0.2
	l0,0c0,0.1,0.1,0.2,0.2,0.2h4.1C17.6,2.8,17.7,2.7,17.7,2.5z"/>
</svg>
