<?xml version="1.0" encoding="UTF-8"?><svg id="_レイヤー_1" xmlns="http://www.w3.org/2000/svg" viewBox="0 0 18.55 26.34"><defs><style>.cls-1{fill:#e584b3;}</style></defs><path class="cls-1" d="m18.55,9.28C18.55,4.16,14.39,0,9.28,0S0,4.16,0,9.28c0,4.57,3.28,8.4,7.73,9.15v1.05h-1.69c-.85,0-1.55.69-1.55,1.55s.69,1.55,1.55,1.55h1.69v2.23c0,.85.69,1.55,1.55,1.55s1.55-.69,1.55-1.55v-2.23h1.69c.85,0,1.55-.69,1.55-1.55s-.69-1.55-1.55-1.55h-1.69v-1.05c4.45-.74,7.73-4.58,7.73-9.15Zm-3.02,0c0,3.45-2.81,6.25-6.25,6.25s-6.25-2.81-6.25-6.25,2.81-6.25,6.25-6.25,6.25,2.81,6.25,6.25Z"/></svg>